<?xml version="1.0" encoding="UTF-8"?>
<!-- Generated by Pixelmator Pro 3.4.3 -->
<svg width="64" height="64" viewBox="0 0 64 64" xmlns="http://www.w3.org/2000/svg">
    <linearGradient id="linearGradient1" x1="31.282674" y1="61.297902" x2="31.282674" y2="5.853428" gradientUnits="userSpaceOnUse">
        <stop offset="0" stop-color="#ffa801" stop-opacity="1"/>
        <stop offset="1" stop-color="#ffcc01" stop-opacity="1"/>
    </linearGradient>
    <path id="path1" fill="url(#linearGradient1)" stroke="#070707" stroke-width="5.333333" stroke-linecap="round" stroke-linejoin="round" d="M 48.850491 58.566578 L 47.849773 58.566578 C 47.849773 58.555912 47.844986 58.545425 47.842842 58.53529 L 47.815472 58.412979 C 47.797867 58.332443 47.779026 58.252621 47.759293 58.173512 C 47.750935 58.136177 47.741684 58.098843 47.732624 58.061691 C 47.706665 57.957157 47.679295 57.852798 47.651203 57.748268 L 47.642849 57.718399 C 47.611912 57.605156 47.579548 57.492622 47.545952 57.380447 L 47.51218 57.271999 C 47.489067 57.194668 47.464531 57.118221 47.442139 57.041779 C 47.428806 56.999825 47.414753 56.958576 47.401421 56.917336 C 47.376884 56.843376 47.351467 56.7696 47.325508 56.696358 C 47.312176 56.65778 47.298138 56.618488 47.284805 56.58062 C 47.25209 56.488888 47.218491 56.39769 47.183823 56.307201 C 47.176174 56.287823 47.169773 56.269333 47.162136 56.249954 C 47.121418 56.143467 47.078571 56.037689 47.035019 55.931911 C 47.019558 55.893333 47.003555 55.855465 46.987373 55.8176 C 46.95787 55.750931 46.92836 55.677868 46.89814 55.608536 L 46.841415 55.480179 C 46.811916 55.413689 46.781685 55.347198 46.750759 55.280533 C 46.731907 55.239288 46.712173 55.19751 46.692627 55.156265 C 46.656712 55.079643 46.622395 55.00391 46.582397 54.928711 C 46.567642 54.900089 46.554306 54.870754 46.539551 54.841423 C 46.489773 54.742401 46.438572 54.641953 46.386665 54.546131 L 46.316448 54.421688 L 46.217422 54.241421 L 46.140274 54.108265 C 46.108086 54.052444 46.075737 53.996445 46.042671 53.940624 C 46.016708 53.895466 45.990044 53.850136 45.963379 53.807644 C 45.926933 53.747025 45.893337 53.68782 45.85334 53.627914 L 45.752182 53.465599 C 45.704536 53.391109 45.656712 53.31591 45.607639 53.242134 C 45.576714 53.195557 45.545952 53.149513 45.514309 53.103645 C 45.482666 53.057777 45.448349 53.005154 45.414577 52.956619 C 45.380981 52.908089 45.344536 52.859554 45.313599 52.811554 C 45.282661 52.763733 45.249065 52.720535 45.215996 52.678577 C 45.183105 52.636623 45.145954 52.580799 45.110039 52.532089 L 45.011204 52.399113 C 44.940971 52.310577 44.876438 52.222046 44.807644 52.13298 L 44.711468 52.0112 C 44.67075 51.960003 44.62862 51.909332 44.5872 51.858845 L 44.494576 51.747025 C 44.451729 51.69582 44.408352 51.645336 44.364799 51.594131 L 44.273602 51.488888 L 44.137424 51.334579 L 44.056709 51.24551 C 43.889065 51.061157 43.716972 50.879467 43.540974 50.702579 L 43.46365 50.62471 L 43.302219 50.467022 L 43.222927 50.391109 C 43.166939 50.337242 43.11076 50.284088 43.05386 50.231464 L 42.995552 50.17831 C 42.796982 49.995377 42.592896 49.817066 42.385063 49.646042 L 42.328178 49.598755 C 42.264175 49.545601 42.199638 49.492977 42.134575 49.441067 L 42.070042 49.389156 C 41.999825 49.335999 41.935993 49.283379 41.867905 49.230759 L 41.833427 49.2048 C 41.604084 49.029156 41.368881 48.858311 41.131729 48.693867 L 41.09866 48.670578 C 41.02364 48.619377 40.948624 48.56889 40.872707 48.518936 L 40.822929 48.486401 C 40.745781 48.43502 40.667915 48.385242 40.58987 48.335289 L 40.576538 48.327286 C 40.318401 48.163734 40.055107 48.006935 39.787029 47.856888 L 39.776531 47.850311 C 39.69173 47.803024 39.606758 47.757156 39.521782 47.711288 L 39.484619 47.6912 C 39.032715 47.4496 38.568535 47.22773 38.09227 47.025955 L 38.062759 47.013332 C 37.937241 46.959999 37.810844 46.908798 37.683201 46.858311 L 40.194839 46.858311 C 40.603909 46.858311 40.935993 46.411911 40.935993 45.860268 C 40.935993 45.3088 40.603909 44.8624 40.194839 44.8624 L 39.446751 44.8624 C 39.492973 44.750576 39.544353 44.62418 39.599651 44.481777 C 40.307198 44.063999 41.552002 43.173691 42.787205 41.538307 L 42.796982 41.525688 C 42.890667 41.403378 42.982571 41.276619 43.072891 41.145779 L 43.091022 41.11982 C 43.180977 40.991463 43.270752 40.859024 43.359116 40.720711 L 43.382935 40.68409 C 43.425064 40.617599 43.467205 40.551109 43.509331 40.484444 C 43.509331 40.484444 43.509331 40.479111 43.514309 40.475914 C 43.557686 40.409245 43.600533 40.336178 43.643379 40.264889 L 43.67075 40.219021 C 43.707195 40.157867 43.744358 40.095291 43.780273 40.032181 C 43.787205 40.020798 43.794312 40.009422 43.800537 39.997513 C 43.841961 39.92569 43.883381 39.852444 43.924088 39.778664 L 43.952175 39.727287 C 43.985771 39.666134 44.018841 39.604263 44.051731 39.541691 C 44.061687 39.524445 44.071465 39.506493 44.08054 39.488533 C 44.11982 39.413334 44.159111 39.337425 44.198406 39.260269 L 44.225777 39.206398 C 44.256714 39.143822 44.288357 39.080002 44.319107 39.016178 L 44.35289 38.949692 C 44.390762 38.871109 44.42791 38.79129 44.465061 38.710754 L 44.48835 38.659554 C 44.519112 38.593063 44.549332 38.526402 44.579548 38.459908 L 44.615288 38.380089 C 44.650486 38.299557 44.685505 38.218491 44.719116 38.136532 C 44.725506 38.121956 44.731731 38.106667 44.737427 38.092087 C 44.76907 38.016891 44.79982 37.940269 44.830757 37.863113 L 44.865776 37.775291 C 44.894573 37.702042 44.923382 37.628265 44.951469 37.554489 L 44.972614 37.498489 C 45.005508 37.410667 45.037868 37.320889 45.070042 37.232353 L 45.103828 37.137955 C 45.12907 37.067379 45.153606 36.995552 45.178127 36.923733 C 45.187202 36.897068 45.196438 36.870399 45.204792 36.84391 C 45.235733 36.751999 45.26667 36.65831 45.296711 36.564445 C 45.306667 36.531914 45.317154 36.497955 45.326931 36.467201 L 45.397148 36.248356 C 45.406223 36.21653 45.416 36.18187 45.42524 36.153244 C 45.453873 36.056709 45.482666 35.958401 45.510052 35.8592 C 45.519287 35.827911 45.527641 35.795914 45.535995 35.764091 C 45.557156 35.687466 45.57814 35.611023 45.598579 35.533157 C 45.607639 35.497955 45.616714 35.462578 45.626667 35.427376 C 45.65263 35.324978 45.678574 35.221867 45.703815 35.117332 L 45.7248 35.03022 C 45.744534 34.947021 45.764091 34.863113 45.783108 34.778664 L 45.80835 34.665596 C 45.83218 34.557156 45.855999 34.448708 45.878582 34.33831 C 45.883381 34.316978 45.887642 34.29493 45.891914 34.271645 C 45.911472 34.176537 45.930489 34.080177 45.948624 33.983646 C 45.956448 33.944359 45.963379 33.905067 45.971207 33.865959 C 45.989338 33.766754 46.006931 33.666313 46.024536 33.567112 C 46.028091 33.545776 46.032173 33.525154 46.03574 33.504532 C 46.055283 33.387558 46.07449 33.269508 46.09333 33.150578 C 46.099556 33.110756 46.105957 33.070755 46.111465 33.03022 C 46.126221 32.933689 46.140274 32.836624 46.154312 32.738132 L 46.166939 32.647644 C 46.183823 32.525333 46.200005 32.402134 46.215469 32.277153 C 46.220268 32.237869 46.224529 32.198578 46.229328 32.158577 C 46.241604 32.05938 46.252792 31.959465 46.263115 31.8592 C 46.267376 31.823288 46.271469 31.78809 46.275024 31.752178 C 46.288532 31.623466 46.301163 31.493866 46.312893 31.363022 C 46.312893 31.326401 46.319294 31.28978 46.322128 31.252445 C 46.331203 31.147377 46.340263 31.041599 46.348091 30.935108 C 46.348091 30.895824 46.354317 30.856709 46.357151 30.817425 C 46.366928 30.681599 46.376003 30.545067 46.384537 30.407467 C 46.384537 30.376358 46.384537 30.340977 46.389336 30.313065 C 46.395737 30.198578 46.402126 30.083557 46.406929 29.967819 C 46.406929 29.925865 46.406929 29.883911 46.412624 29.841957 C 46.418133 29.69902 46.423828 29.555199 46.428085 29.409599 C 46.428085 29.389511 46.428085 29.368889 46.428085 29.348267 C 46.431816 29.218845 46.43449 29.087997 46.436443 28.955734 C 46.436443 28.912533 46.436443 28.869335 46.436443 28.82613 C 46.436443 28.68409 46.436443 28.541336 46.436443 28.39769 L 46.436443 28.364265 C 46.436443 28.21138 46.436443 28.056355 46.436443 27.898666 L 46.436443 27.765511 C 46.436443 27.632534 46.430759 27.492798 46.427383 27.354309 L 46.427383 27.27911 C 46.422405 27.119465 46.41618 26.957867 46.409775 26.795555 C 46.409775 26.753601 46.405518 26.710934 46.404095 26.669155 C 46.398045 26.532444 46.391113 26.395023 46.38311 26.256535 C 46.38311 26.22258 46.38311 26.190044 46.377426 26.153423 C 46.367649 25.987198 46.356976 25.819557 46.345242 25.65049 L 46.336712 25.532799 C 46.326225 25.391644 46.315727 25.249954 46.303818 25.106846 C 46.303818 25.065598 46.297417 25.024353 46.294041 24.983112 C 46.279282 24.810135 46.263115 24.635201 46.246216 24.459553 C 46.246216 24.426311 46.239285 24.393066 46.23645 24.359112 C 46.221695 24.209423 46.205513 24.058308 46.189331 23.905956 C 46.184528 23.860088 46.17955 23.814934 46.174046 23.768887 C 46.154312 23.58791 46.133327 23.406399 46.11076 23.222046 C 46.11076 23.199467 46.104534 23.176888 46.101685 23.155556 C 46.081596 22.990582 46.060261 22.824711 46.037868 22.657955 C 46.030762 22.608711 46.024536 22.559467 46.017429 22.51022 C 45.991291 22.321243 45.964451 22.130665 45.936714 21.938667 C 43.129597 2.99427 23.237156 6.068726 23.237156 6.068726 L 23.874308 10.139164 L 11.843737 22.188091 L 12.369426 26.840714 L 16.926758 29.502045 C 17.129951 29.012444 17.39076 28.54631 17.704359 28.112175 C 20.644802 24.896713 26.349514 22.372444 27.982571 21.848892 C 28.309517 21.744358 28.49547 21.69173 28.49547 21.69173 C 20.684095 31.276443 21.572441 42.256889 21.920532 44.874313 C 21.558403 44.9408 21.278402 45.355377 21.278402 45.860977 C 21.278402 46.411911 21.610312 46.859024 22.019558 46.859024 L 24.531197 46.859024 C 20.353951 48.516621 17.038221 51.673779 15.307739 55.641247 C 15.305596 55.64658 15.30329 55.651909 15.300618 55.657242 C 15.172974 55.951645 15.054226 56.250488 14.944173 56.553421 C 14.944349 56.556442 14.944349 56.559647 14.944173 56.562668 C 14.914673 56.645157 14.886041 56.727646 14.857951 56.810844 C 14.84729 56.840714 14.836805 56.870754 14.827026 56.901333 C 14.801771 56.975822 14.778307 57.051022 14.756795 57.126934 C 14.744182 57.165512 14.732273 57.2048 14.72035 57.243378 C 14.697957 57.314491 14.676093 57.386311 14.65511 57.458134 L 14.617242 57.59129 C 14.597507 57.65778 14.577962 57.729069 14.559638 57.798222 C 14.546306 57.847466 14.533691 57.896 14.521064 57.945244 C 14.504177 58.011734 14.486572 58.078224 14.470581 58.144886 C 14.4544 58.21138 14.438938 58.277866 14.423462 58.348442 C 14.408 58.418842 14.388441 58.501511 14.371555 58.578667 L 13.370131 58.578667 C 13.177599 58.574577 12.986138 58.607109 12.806939 58.674133 C 12.62774 58.741158 12.464532 58.841599 12.326931 58.969246 C 12.189155 59.096889 12.079821 59.249424 12.004978 59.417778 C 11.930311 59.586136 11.891913 59.766933 11.891913 59.949509 C 11.891913 60.132088 11.930311 60.312885 12.004978 60.481243 C 12.079821 60.649597 12.189155 60.801956 12.326931 60.929775 C 12.464532 61.057419 12.62774 61.157688 12.806939 61.224888 C 12.986138 61.291912 13.177599 61.324444 13.370131 61.320354 L 48.863106 61.320354 C 49.055828 61.324444 49.247288 61.291912 49.426311 61.224888 C 49.605511 61.157688 49.768719 61.057419 49.906494 60.929775 C 50.044094 60.801956 50.153606 60.649597 50.228271 60.481243 C 50.302937 60.312885 50.341335 60.132088 50.341335 59.949509 C 50.341335 59.766933 50.302937 59.586136 50.228271 59.417778 C 50.153606 59.249424 50.044094 59.096889 49.906494 58.969246 C 49.768719 58.841599 49.605511 58.741158 49.426311 58.674133 C 49.247288 58.607109 49.055828 58.574577 48.863106 58.578667 L 48.850491 58.566578 Z"/>
</svg>
